<svg xmlns="http://www.w3.org/2000/svg" viewBox="0 0 64 64" role="img" aria-label="Brightwell Orthodontics">
  <defs>
    <linearGradient id="g" x1="0" y1="0" x2="1" y2="1">
      <stop offset="0" stop-color="#0EA5E9"/>
      <stop offset="1" stop-color="#0284C7"/>
    </linearGradient>
  </defs>
  <rect x="2" y="2" width="60" height="60" rx="16" fill="url(#g)"/>
  <path d="M32 14c-7 0-11 3-15 3-2 0-3 1-3 4 0 7 2 13 4 19 1 3 3 6 5 6 2 0 2-3 3-6s2-5 6-5 5 2 6 5 1 6 3 6c2 0 4-3 5-6 2-6 4-12 4-19 0-3-1-4-3-4-4 0-8-3-15-3z" fill="#fff"/>
  <path d="M22 41c2 3 5 5 10 5s8-2 10-5" fill="none" stroke="#059669" stroke-width="3" stroke-linecap="round"/>
</svg>
